<svg width="551" height="471" viewBox="0 0 551 471" fill="none" xmlns="http://www.w3.org/2000/svg">
<path d="M288.352 221.499C283.68 211.51 283.201 200.297 286.977 189.915C290.743 179.551 298.342 171.279 308.332 166.603C313.826 164.036 319.696 162.734 325.758 162.734C341.737 162.734 356.43 172.083 363.196 186.567L382.31 227.572C393.795 207.963 403.576 185.687 410.608 160.416C433.144 79.4949 382.176 9.72289 329.4 1.92289C265.545 -7.54591 237.921 19.6469 208.036 46.6629C178.172 19.6322 150.557 -7.54511 86.6863 1.92289C33.9103 9.71983 -17.0684 79.4856 5.47831 160.416C50.525 322.27 208.038 361.55 208.038 361.55C208.038 361.55 267.533 346.648 323.861 297.648L288.352 221.499ZM221.092 285.906V315.458H192.701V287.922C173.275 287.042 154.425 281.828 143.42 275.438L152.113 241.536C164.284 248.182 181.383 254.291 200.227 254.291C216.727 254.291 228.05 247.901 228.05 236.313C228.05 225.308 218.774 218.349 197.331 211.089C166.301 200.667 145.154 186.182 145.154 158.062C145.154 132.557 163.118 112.562 194.107 106.453V78.9474H222.555V104.437C241.951 105.317 254.977 109.364 264.577 114.01L256.17 146.759C248.613 143.561 235.28 136.889 214.4 136.889C195.566 136.889 189.493 145.03 189.493 153.124C189.493 162.697 199.634 168.791 224.29 178.061C258.769 190.249 272.692 206.181 272.692 232.269C272.686 258.072 254.42 280.098 221.092 285.906Z" fill="url(#paint0_linear_1_140)"/>
<path d="M548.805 376.006C551.357 339.074 503.66 237.593 503.66 237.593C499.061 227.754 487.384 223.494 477.54 228.082C467.701 232.681 463.457 244.374 468.029 254.218L464.477 246.604C459.488 235.88 446.753 231.254 436.045 236.239C425.321 241.229 420.707 253.979 425.696 264.671L423.962 260.968C418.525 249.333 404.681 244.286 393.05 249.723C381.415 255.145 376.367 269.005 381.805 280.635L342.472 196.261C338.17 187.063 327.227 183.058 317.999 187.36C308.785 191.646 304.795 202.605 309.082 211.818L379.759 363.378C379.759 363.378 331.062 335.586 298.566 355.686C286.946 362.868 274.014 377.951 325.878 393.722C380.591 410.372 397.586 424.024 449.211 470.691L550.742 423.352C550.763 423.352 546.773 405.374 548.804 376.014L548.805 376.006Z" fill="url(#paint1_linear_1_140)"/>
<defs>
<linearGradient id="paint0_linear_1_140" x1="208.041" y1="0" x2="208.041" y2="361.55" gradientUnits="userSpaceOnUse">
<stop stop-color="#FF7A00"/>
<stop offset="1" stop-color="#FE0000"/>
</linearGradient>
<linearGradient id="paint1_linear_1_140" x1="419.419" y1="185.63" x2="419.419" y2="470.691" gradientUnits="userSpaceOnUse">
<stop stop-color="#FF7A00"/>
<stop offset="1" stop-color="#FE0000"/>
</linearGradient>
</defs>
</svg>
