<svg width="439" height="428" viewBox="0 0 439 428" fill="none" xmlns="http://www.w3.org/2000/svg">
<g filter="url(#filter0_b_1_39)">
<path d="M409.132 109.208C389.524 75.612 362.927 49.014 329.334 29.408C295.736 9.801 259.057 0 219.271 0C179.49 0 142.799 9.804 109.208 29.408C75.612 49.013 49.016 75.612 29.408 109.208C9.803 142.803 0 179.489 0 219.265C0 267.045 13.94 310.01 41.827 348.171C69.711 386.335 105.733 412.743 149.89 427.398C155.03 428.352 158.835 427.681 161.309 425.402C163.784 423.12 165.02 420.262 165.02 416.84C165.02 416.269 164.971 411.132 164.876 401.423C164.778 391.714 164.732 383.244 164.732 376.017L158.165 377.153C153.978 377.92 148.696 378.245 142.319 378.153C135.945 378.064 129.328 377.396 122.477 376.154C115.623 374.923 109.248 372.068 103.347 367.595C97.449 363.122 93.262 357.267 90.787 350.039L87.932 343.469C86.029 339.095 83.033 334.236 78.94 328.91C74.847 323.579 70.708 319.965 66.521 318.062L64.522 316.631C63.19 315.68 61.954 314.533 60.811 313.202C59.669 311.871 58.814 310.539 58.243 309.205C57.671 307.87 58.145 306.775 59.67 305.916C61.195 305.057 63.951 304.64 67.95 304.64L73.658 305.493C77.465 306.256 82.174 308.535 87.791 312.344C93.405 316.15 98.02 321.098 101.637 327.186C106.017 334.992 111.294 340.94 117.483 345.033C123.667 349.126 129.902 351.169 136.182 351.169C142.462 351.169 147.886 350.693 152.456 349.746C157.021 348.794 161.304 347.363 165.303 345.461C167.016 332.703 171.68 322.902 179.291 316.051C168.443 314.911 158.69 313.194 150.027 310.911C141.369 308.625 132.422 304.915 123.192 299.771C113.957 294.634 106.296 288.255 100.207 280.645C94.117 273.031 89.119 263.035 85.22 250.666C81.319 238.292 79.368 224.018 79.368 207.84C79.368 184.805 86.888 165.203 101.925 149.023C94.881 131.705 95.546 112.291 103.922 90.783C109.442 89.068 117.628 90.355 128.476 94.636C139.326 98.919 147.27 102.588 152.316 105.63C157.362 108.671 161.405 111.248 164.451 113.338C182.156 108.391 200.427 105.917 219.269 105.917C238.111 105.917 256.386 108.391 274.092 113.338L284.941 106.489C292.36 101.919 301.121 97.731 311.203 93.924C321.291 90.119 329.005 89.071 334.337 90.786C342.899 112.295 343.662 131.708 336.616 149.026C351.652 165.206 359.175 184.813 359.175 207.843C359.175 224.021 357.217 238.34 353.322 250.809C349.422 263.28 344.381 273.266 338.197 280.788C332.006 288.309 324.296 294.638 315.066 299.774C305.834 304.914 296.884 308.624 288.226 310.91C279.564 313.196 269.811 314.914 258.963 316.056C268.857 324.618 273.805 338.133 273.805 356.595V416.832C273.805 420.254 274.995 423.111 277.377 425.394C279.756 427.673 283.513 428.344 288.653 427.389C332.816 412.736 368.838 386.327 396.721 348.163C424.601 310.002 438.546 267.037 438.546 219.257C438.536 179.486 428.728 142.803 409.132 109.208Z" fill="url(#paint0_linear_1_39)" fill-opacity="0.670588"/>
</g>
<defs>
<filter id="filter0_b_1_39" x="-4" y="-4" width="446.546" height="435.819" filterUnits="userSpaceOnUse" color-interpolation-filters="sRGB">
<feFlood flood-opacity="0" result="BackgroundImageFix"/>
<feGaussianBlur in="BackgroundImageFix" stdDeviation="2"/>
<feComposite in2="SourceAlpha" operator="in" result="effect1_backgroundBlur_1_39"/>
<feBlend mode="normal" in="SourceGraphic" in2="effect1_backgroundBlur_1_39" result="shape"/>
</filter>
<linearGradient id="paint0_linear_1_39" x1="219.273" y1="0" x2="219.273" y2="427.818" gradientUnits="userSpaceOnUse">
<stop stop-color="#FF7A00"/>
<stop offset="1" stop-color="#FE0000"/>
</linearGradient>
</defs>
</svg>
