<svg width="500" height="500" viewBox="0 0 500 500" fill="none" xmlns="http://www.w3.org/2000/svg">
<g filter="url(#filter0_b_1_31)">
<path d="M410.599 336.1C411.936 345.795 408.929 349.996 405.588 349.996C402.247 349.996 397.57 346.118 392.558 338.362C387.547 330.606 385.543 321.88 388.215 317.356C389.886 314.447 393.227 313.154 397.904 314.77C406.256 317.679 409.597 330.282 410.599 336.1ZM363.158 357.429C373.515 365.831 376.522 375.85 371.177 382.636C368.17 386.514 363.158 388.453 357.479 388.453C351.799 388.453 345.786 386.514 341.776 382.96C332.422 375.203 329.749 362.277 335.763 355.167C338.101 352.258 342.111 350.642 346.454 350.642C352.133 350.965 358.147 353.228 363.158 357.429ZM346.12 438.222C390.22 438.222 437.995 452.765 490.782 498.332C496.127 502.857 503.143 497.363 498.466 491.546C446.347 427.881 398.238 415.923 350.463 405.582C291.663 392.978 261.594 360.984 240.546 326.081C236.203 318.971 234.533 320.264 234.199 329.313C233.865 340.301 234.533 354.844 237.206 369.063C234.867 369.063 232.528 369.063 230.19 369.063C146.332 369.063 78.1776 303.136 78.1776 222.02C78.1776 140.903 146.332 74.9761 230.19 74.9761C314.047 74.9761 382.202 140.903 382.202 222.02C382.202 227.837 381.868 233.654 381.199 239.148C370.174 237.209 348.124 236.886 332.756 238.178C327.076 238.501 327.745 241.41 332.088 242.056C382.202 250.782 416.947 280.837 424.631 335.776C424.965 337.069 426.636 337.392 427.304 336.423C448.018 303.136 459.711 264.032 459.711 222.343C459.711 99.5372 356.811 0 229.856 0C102.9 0 0 99.5372 0 222.343C0 345.148 102.9 444.686 229.856 444.686C263.599 444.686 297.008 438.222 346.12 438.222Z" fill="url(#paint0_linear_1_31)" fill-opacity="0.670588"/>
</g>
<defs>
<filter id="filter0_b_1_31" x="-4" y="-4" width="508" height="508" filterUnits="userSpaceOnUse" color-interpolation-filters="sRGB">
<feFlood flood-opacity="0" result="BackgroundImageFix"/>
<feGaussianBlur in="BackgroundImageFix" stdDeviation="2"/>
<feComposite in2="SourceAlpha" operator="in" result="effect1_backgroundBlur_1_31"/>
<feBlend mode="normal" in="SourceGraphic" in2="effect1_backgroundBlur_1_31" result="shape"/>
</filter>
<linearGradient id="paint0_linear_1_31" x1="250" y1="0" x2="250" y2="500" gradientUnits="userSpaceOnUse">
<stop stop-color="#FF7A00"/>
<stop offset="1" stop-color="#FE0000"/>
</linearGradient>
</defs>
</svg>
